<svg width="24" height="24" viewBox="0 0 24 24" fill="none" xmlns="http://www.w3.org/2000/svg">
<path d="M21 5L18 14H6L5 5H21Z" fill="black" fill-opacity="0.15"/>
<path d="M19 19C19 20.1046 18.1046 21 17 21C15.8954 21 15 20.1046 15 19C15 17.8954 15.8954 17 17 17C18.1046 17 19 17.8954 19 19Z" fill="white"/>
<path d="M11 19C11 20.1046 10.1046 21 9 21C7.89543 21 7 20.1046 7 19C7 17.8954 7.89543 17 9 17C10.1046 17 11 17.8954 11 19Z" fill="white"/>
<path d="M2 3H4.5L4.78571 5M17 17C15.8954 17 15 17.8954 15 19C15 20.1046 15.8954 21 17 21C18.1046 21 19 20.1046 19 19C19 17.8954 18.1046 17 17 17ZM17 17H9M9 17C7.89543 17 7 17.8954 7 19C7 20.1046 7.89543 21 9 21C10.1046 21 11 20.1046 11 19C11 17.8954 10.1046 17 9 17ZM9 17H6.5L6.07143 14M6.07143 14H18L21 5H4.78571M6.07143 14L4.78571 5" stroke="#6F3A19" stroke-width="2" stroke-linecap="round" stroke-linejoin="round"/>
</svg>
